{"title":"Bull 2016 S01E01 The Necklace 1080p WEB-DL HEVC DD5.1 x265","uid":15874004,"size":748831853,"categoryP":"video","categoryS":"hd___tv_shows","magnet":"?xt=urn:btih:4e6513a1c2e410ac5963e5e9418a30d82bb47ba5&amp;dn=Bull+2016+S01E01+The+Necklace+1080p+WEB-DL+HEVC+DD5.1+x265&amp;tr=udp%3A%2F%2Ftracker.leechers-paradise.org%3A6969&amp;tr=udp%3A%2F%2Fzer0day.ch%3A1337&amp;tr=udp%3A%2F%2Fopen.demonii.com%3A1337&amp;tr=udp%3A%2F%2Ftracker.coppersurfer.tk%3A6969&amp;tr=udp%3A%2F%2Fexodus.desync.com%3A6969","seeders":9,"leechers":2,"uploader":"nayhtut","files":1,"time":1474473532,"description":"[Screenshots Gallery Link]\r\n\r\n[http://postimg.org/gallery/mo6hgsja]\r\n\r\n\r\nSource:Bull 2016 S01E01 The Necklace 1080p WEB-DL DD5 1 H264-AG (1.7 GB)\r\n\r\n \r\nComplete name: Bull.2016.S01E01.The.Necklace.1080p.WEB-DL.HEVC.DD5.1.x265.mkv\r\nFormat                                   : Matroska\r\nFormat version                           : Version 4 / Version 2\r\nFile size                                : 714 MiB\r\nDuration                                 : 43mn 36s\r\nOverall bit rate                         : 2 289 Kbps\r\nWriting application                      : Lavf57.25.100\r\nWriting library                          : Lavf57.25.100\r\n\r\nVideo\r\n\r\nID                                       : 1\r\nFormat                                   : V_MPEGH/ISO/HEVC\r\nCodec ID                                 : V_MPEGH/ISO/HEVC\r\nDuration                                 : 43mn 36s\r\nBit rate                                 : 1 860 Kbps\r\nWidth                                    : 1 920 pixels\r\nHeight                                   : 1 080 pixels\r\nDisplay aspect ratio                     : 16:9\r\nFrame rate                               : 25.000 fps\r\nBits/(Pixel*Frame)                       : 0.036\r\nStream size                              : 580 MiB (81%)\r\nWriting library                          : Lavc57.48.101 libx265\r\nLanguage                                 : English\r\nDefault                                  : Yes\r\nForced                                   : No\r\nDURATION                                 : 00:43:36.931000000\r\n\r\nAudio\r\n\r\nID                                       : 2\r\nFormat                                   : AC-3\r\nFormat/Info                              : Audio Coding 3\r\nMode extension                           : CM (complete main)\r\nFormat settings, Endianness              : Big\r\nCodec ID                                 : A_AC3\r\nDuration                                 : 43mn 36s\r\nBit rate mode                            : Constant\r\nBit rate                                 : 384 Kbps\r\nChannel(s)                               : 6 channels\r\nChannel positions                        : Front: L C R, Side: L R, LFE\r\nSampling rate                            : 48.0 KHz\r\nBit depth                                : 16 bits\r\nCompression mode                         : Lossy\r\nStream size                              : 120 MiB (17%)\r\nWriting library                          : Lavc57.24.102 ac3\r\nLanguage                                 : English\r\nDefault                                  : Yes\r\nForced                                   : No\r\nDURATION                                 : 00:43:36.927000000\r\n\r\nText\r\n\r\nID                                       : 3\r\nFormat                                   : ASS\r\nCodec ID                                 : S_TEXT/ASS\r\nLanguage                                 : English","torrent":{"xt":"urn:btih:4e6513a1c2e410ac5963e5e9418a30d82bb47ba5","amp;dn":"Bull+2016+S01E01+The+Necklace+1080p+WEB-DL+HEVC+DD5.1+x265","amp;tr":["udp%3A%2F%2Ftracker.leechers-paradise.org%3A6969","udp%3A%2F%2Fzer0day.ch%3A1337","udp%3A%2F%2Fopen.demonii.com%3A1337","udp%3A%2F%2Ftracker.coppersurfer.tk%3A6969","udp%3A%2F%2Fexodus.desync.com%3A6969"],"infoHash":"4e6513a1c2e410ac5963e5e9418a30d82bb47ba5","infoHashBuffer":{"type":"Buffer","data":[78,101,19,161,194,228,16,172,89,99,229,233,65,138,48,216,43,180,123,165]},"announce":[],"urlList":[]}}